<svg xmlns="http://www.w3.org/2000/svg" viewBox="0 0 800 1000" fill="none">
  <!-- Large feather shape -->
  <path d="M420 80 C480 160, 560 220, 580 340 C600 460, 540 580, 460 680 C400 760, 320 820, 280 900 C300 800, 340 720, 360 640 C300 700, 220 740, 160 760 C240 700, 300 640, 360 580 C280 620, 200 640, 140 640 C220 600, 300 560, 360 520 C280 540, 200 540, 140 520 C220 500, 300 480, 370 460 C300 460, 220 450, 160 420 C240 420, 320 420, 380 420 C340 380, 300 340, 260 300 C320 320, 360 340, 390 370 C370 320, 350 260, 340 200 C370 260, 390 310, 400 360 C400 300, 400 240, 410 180 C410 240, 410 300, 410 360 C420 300, 440 240, 460 180 C440 240, 430 310, 420 360 C440 300, 470 260, 500 220 C470 280, 450 330, 430 370 C460 340, 500 310, 540 290 C500 320, 460 360, 430 390"
    fill="rgba(200,58,40,0.04)" stroke="rgba(200,58,40,0.03)" stroke-width="1"/>
  <!-- Stem curve -->
  <path d="M280 900 C300 840, 340 760, 380 680 C420 600, 440 520, 440 440 C440 360, 430 280, 420 200 C415 140, 418 100, 420 80"
    stroke="rgba(197,165,90,0.05)" stroke-width="2.5" fill="none" stroke-linecap="round"/>
  <!-- Small accent waves -->
  <path d="M350 750 C380 730, 410 740, 440 730 C470 720, 490 730, 520 720"
    stroke="rgba(197,165,90,0.06)" stroke-width="2" fill="none" stroke-linecap="round"/>
  <path d="M330 780 C360 760, 390 770, 420 760 C450 750, 470 760, 500 750"
    stroke="rgba(197,165,90,0.04)" stroke-width="2" fill="none" stroke-linecap="round"/>
</svg>
